<?xml version="1.0" encoding="utf-8"?>
<!-- Generator: Adobe Illustrator 22.1.0, SVG Export Plug-In . SVG Version: 6.00 Build 0)  -->
<!DOCTYPE svg PUBLIC "-//W3C//DTD SVG 1.1//EN" "http://www.w3.org/Graphics/SVG/1.1/DTD/svg11.dtd">
<svg version="1.1" id="Layer_1" xmlns="http://www.w3.org/2000/svg" xmlns:xlink="http://www.w3.org/1999/xlink" x="0px" y="0px"
	 width="583.1px" height="227.3px" viewBox="0 0 583.1 227.3" style="enable-background:new 0 0 583.1 227.3;" xml:space="preserve"
	>
<style type="text/css">
	.st0{fill:#FFFFFF;}
</style>
<g>
	<path class="st0" d="M324.1,75.4l-10,1.5c-6.8,1-12.1,5-12.1,12.3c0,6.4,5.3,12.2,13.9,12.2c6,0,9.9-2.8,12-6
		c0,1.6,0.2,3.8,0.4,4.9h10.1c-0.2-1.4-0.5-4.3-0.5-6.4v-20c0-8.2-4.8-15.4-17.7-15.4c-10.9,0-16.8,7-17.4,13.4l9.7,2.1
		c0.3-3.5,3-6.6,7.8-6.6c4.6,0,6.8,2.4,6.8,5.3C327.1,73.9,326.4,75.1,324.1,75.4z M327.1,83.8c0,7.2-4.3,9.4-8.9,9.4
		c-3.5,0-5.3-2.3-5.3-4.7c0-3.1,2.2-4.7,5-5.1l9.2-1.4V83.8z"/>
	<path class="st0" d="M74.5,154.6h7c0.4,0,0.7-0.2,0.9-0.5L97,124.7c0.1-0.1,0.1-0.3,0.1-0.5V73.9c0-0.5-0.4-1-1-1H74.5
		c-0.5,0-1,0.4-1,1v79.7C73.5,154.1,74,154.6,74.5,154.6z"/>
	<path class="st0" d="M103.5,92.9h17.8c0.4,0,0.7-0.2,0.9-0.5l5.9-11.9c0.1-0.2,0.1-0.3,0.1-0.5v-6c0-0.6-0.5-1-1-1h-18
		c-0.4,0-0.7,0.2-0.9,0.5l-5.7,11.2c-0.1,0.2-0.1,0.3-0.1,0.5v6.7C102.5,92.5,102.9,92.9,103.5,92.9z"/>
	<path class="st0" d="M148.8,92.4c5.2,0,9.4-4.2,9.4-9.4s-4.2-9.4-9.4-9.4c-5.2,0-9.4,4.2-9.4,9.4S143.6,92.4,148.8,92.4z
		 M148.8,78.3c2.6,0,4.7,2.1,4.7,4.7c0,2.6-2.1,4.7-4.7,4.7c-2.6,0-4.7-2.1-4.7-4.7C144.2,80.4,146.3,78.3,148.8,78.3z"/>
	<path class="st0" d="M140.3,104.1h17.2c0.6,0,1-0.5,1-1v-3.5c0-0.6-0.5-1-1-1h-17.2c-0.6,0-1,0.5-1,1v3.5
		C139.3,103.7,139.7,104.1,140.3,104.1z"/>
	<path class="st0" d="M44.2,41.9v143.7h143.7V41.9H44.2z M181.1,178.7H51v-130h130V178.7z"/>
	<path class="st0" d="M210.3,101.5h11.5V77.7h5.9l12.1,23.7h12.7l-13.1-25.1c7.7-2.2,12.5-8.4,12.5-16.6c0-10.2-7.3-18-18.7-18
		h-22.9V101.5z M240.2,59.8c0,4.8-3.4,8.1-9.2,8.1h-9.2V51.6h9.2C236.8,51.6,240.2,54.9,240.2,59.8z"/>
	<path class="st0" d="M295.7,79.4c0-13-7.5-21-20.1-21c-10.4,0-20,8.4-20,21.4c0,13.7,9.8,21.7,21,21.7c10,0,16.4-5.9,18.5-12.9
		l-9.2-2.7c-1.3,3.6-4.1,6.2-9.2,6.2c-5.4,0-10-3.9-10.2-9.2h29.1C295.5,82.7,295.7,81,295.7,79.4z M266.7,75.3c0.2-3.7,3.4-8,9.1-8
		c6.3,0,8.9,4,9.1,8H266.7z"/>
	<path class="st0" d="M366.4,68.6c5.4,0,8,3.5,9,6.8l9.8-3.3c-1.7-6.8-8-13.7-19.1-13.7c-11.8,0-21,9-21,21.5
		c0,12.5,9.4,21.5,21.4,21.5c10.8,0,17.2-6.9,19-13.7l-9.7-3.2c-0.9,3.1-3.7,6.9-9.3,6.9c-5.6,0-10.4-4.1-10.4-11.5
		S360.8,68.6,366.4,68.6z"/>
	<path class="st0" d="M416.3,69.4v-9.7h-8.2V47.5h-9.9v5.7c0,3.6-2,6.4-6.3,6.4h-2.1v9.7h7.3v19.4c0,7.8,5,12.5,12.9,12.5
		c3.2,0,5.2-0.6,6.2-1v-9.1c-0.6,0.2-2.1,0.3-3.4,0.3c-3.1,0-4.8-1.2-4.8-4.7V69.4H416.3z"/>
	<path class="st0" d="M423.2,46.3c0,3.6,3.1,6.7,6.8,6.7c3.8,0,6.8-3.1,6.8-6.7c0-3.8-3-6.8-6.8-6.8
		C426.3,39.5,423.2,42.6,423.2,46.3z"/>
	<rect x="424.6" y="59.6" class="st0" width="11" height="41.7"/>
	<polygon class="st0" points="486.1,59.6 474.6,59.6 464.9,86.9 454.9,59.6 442.8,59.6 459.9,101.3 470,101.3 	"/>
	<path class="st0" d="M508.5,58.4c-10.4,0-20,8.4-20,21.4c0,13.7,9.8,21.7,21,21.7c10,0,16.4-5.9,18.5-12.9l-9.2-2.7
		c-1.3,3.6-4.1,6.2-9.2,6.2c-5.4,0-10-3.9-10.2-9.2h29.1c0-0.2,0.2-1.8,0.2-3.4C528.6,66.4,521.1,58.4,508.5,58.4z M499.6,75.3
		c0.2-3.7,3.4-8,9.1-8c6.3,0,8.9,4,9.1,8H499.6z"/>
	<path class="st0" d="M269.9,155c0-18.9-14.2-30.5-30.1-30.5c-15.8,0-30,11.6-30,30.5c0,18.8,14.2,30.5,30,30.5
		C255.7,185.5,269.9,173.9,269.9,155z M221.5,155c0-13.2,9.2-19.5,18.2-19.5c9.1,0,18.3,6.3,18.3,19.5c0,13.2-9.2,19.5-18.3,19.5
		C230.8,174.4,221.5,168.2,221.5,155z"/>
	<path class="st0" d="M288.8,180.3c2,2.7,6.1,5,11.7,5c11.5,0,19.1-9.1,19.1-21.4c0-12-6.8-21.1-18.7-21.1c-6.1,0-10.6,2.7-12.5,5.9
		v-5h-10.6v56.3h11V180.3z M298.8,152.6c5.6,0,10.1,4.2,10.1,11.4c0,7.3-4.5,11.5-10.1,11.5c-5.6,0-10.1-4.3-10.1-11.5
		C288.7,156.8,293.2,152.6,298.8,152.6z"/>
	<path class="st0" d="M341.7,177.1c-4.8,0-7.2-3-7.4-6.2l-9.4,2.1c0.5,4.6,4.7,12.5,16.9,12.5c10.6,0,15.8-6.8,15.8-13.4
		c0-5.9-4-10.8-12-12.5l-5.8-1.2c-2.2-0.4-3.7-1.7-3.7-3.6c0-2.3,2.3-4,5.2-4c4.6,0,6.4,3.1,6.7,5.4l9.2-2.1
		c-0.5-4.4-4.4-11.7-15.9-11.7c-8.7,0-15.2,6-15.2,13.3c0,5.7,3.5,10.4,11.4,12.1l5.4,1.2c3.1,0.7,4.4,2.1,4.4,4
		C347.1,175.2,345.4,177.1,341.7,177.1z"/>
</g>
</svg>
